<svg width="128" height="42" viewBox="0 0 128 42" fill="none" xmlns="http://www.w3.org/2000/svg">
<path fill-rule="evenodd" clip-rule="evenodd" d="M31.5701 17.2907C31.5695 17.321 31.5689 17.3587 31.5681 17.3825L31.565 17.3825C31.5638 17.3509 31.5626 17.2839 31.5614 17.1622L31.5364 14.8577H29.248H16.3811V19.5026H26.7871C26.4371 21.8969 25.4814 23.8177 24.0604 25.2082C22.2398 26.9899 19.5966 27.9607 16.4316 27.9945C16.2226 27.9968 16.2586 27.9958 16.3309 27.9939H16.331H16.331C16.4344 27.9912 16.6118 27.9866 16.2533 27.9866C13.0321 27.9866 10.1332 26.6861 8.04108 24.584C5.93986 22.4727 4.64517 19.547 4.64517 16.3103C4.64517 13.0748 5.93956 10.1524 8.03956 8.04361C10.1313 5.9433 13.0309 4.64496 16.2533 4.64496C17.7726 4.64496 19.2216 4.93378 20.5489 5.45939C21.9352 6.00813 23.1863 6.80826 24.244 7.80196L27.4192 4.42704C25.9267 3.02491 24.1776 1.90217 22.2544 1.1407C20.3949 0.404783 18.37 0 16.2533 0C11.7556 0 7.69595 1.82517 4.75565 4.77765C1.81352 7.73165 -9.15527e-05 11.8096 -9.15527e-05 16.3103C-9.15527e-05 20.811 1.81382 24.8926 4.75687 27.85C7.69687 30.8043 11.756 32.6316 16.2533 32.6316C16.4465 32.6316 16.4141 32.631 16.3491 32.6299L16.3487 32.6299C16.3171 32.6294 16.2779 32.6287 16.2533 32.6279C16.2268 32.627 16.2174 32.6261 16.2533 32.6249C16.2846 32.624 16.3498 32.6227 16.4682 32.6215C20.8626 32.5746 24.6192 31.1421 27.3084 28.5107C29.9992 25.8772 31.5626 22.1036 31.5626 17.3825H31.565C31.5663 17.4181 31.5672 17.4087 31.5681 17.3825H31.5717C31.5717 17.197 31.5712 17.2283 31.5701 17.2907ZM43.8055 15.8621C45.4733 15.8621 46.9816 16.5582 48.0718 17.6833C49.1635 18.8103 49.8388 20.3753 49.8388 22.1113C49.8388 23.8473 49.1635 25.4126 48.0718 26.5393C46.9816 27.6644 45.4733 28.3605 43.8055 28.3605C42.1373 28.3605 40.629 27.6644 39.5388 26.5393C38.4471 25.4126 37.7718 23.8473 37.7718 22.1113C37.7718 20.3753 38.4471 18.8103 39.5388 17.6833C40.629 16.5582 42.1373 15.8621 43.8055 15.8621ZM51.2614 14.7476C49.3516 12.8555 46.7153 11.6849 43.8055 11.6849C40.8956 11.6849 38.259 12.8555 36.3492 14.7476C34.441 16.6382 33.2607 19.2422 33.2607 22.1113C33.2607 24.9804 34.441 27.5844 36.3492 29.475C38.259 31.3674 40.8956 32.5376 43.8055 32.5376C46.7153 32.5376 49.3516 31.3674 51.2614 29.475C53.1699 27.5844 54.3502 24.9804 54.3502 22.1113C54.3502 19.2422 53.1699 16.6382 51.2614 14.7476ZM70.7509 17.6833C69.6607 16.5582 68.1524 15.8621 66.4846 15.8621C64.8164 15.8621 63.3081 16.5582 62.2179 17.6833C61.1265 18.8103 60.4512 20.3753 60.4512 22.1113C60.4512 23.8473 61.1265 25.4126 62.2179 26.5393C63.3081 27.6644 64.8164 28.3605 66.4846 28.3605C68.1524 28.3605 69.6607 27.6644 70.7509 26.5393C71.8426 25.4126 72.518 23.8473 72.518 22.1113C72.518 20.3753 71.8426 18.8103 70.7509 17.6833ZM66.4846 11.6849C69.3944 11.6849 72.0307 12.8555 73.9408 14.7476C75.849 16.6382 77.0293 19.2422 77.0293 22.1113C77.0293 24.9804 75.849 27.5844 73.9408 29.475C72.0307 31.3674 69.3944 32.5376 66.4846 32.5376C63.5747 32.5376 60.9384 31.3674 59.0284 29.475C57.1201 27.5844 55.9395 24.9804 55.9395 22.1113C55.9395 19.2422 57.1201 16.6382 59.0284 14.7476C60.9384 12.8555 63.5747 11.6849 66.4846 11.6849ZM88.9832 15.8621C90.5719 15.8621 92.0088 16.5582 93.0472 17.6833C94.0872 18.8103 94.7302 20.3753 94.7302 22.1113C94.7302 23.8473 94.0872 25.4126 93.0472 26.5393C92.0088 27.6644 90.5719 28.4752 88.9832 28.4752C85.6013 28.4752 83.2362 25.6195 83.2362 22.1113C83.2362 20.3753 83.8793 18.8103 84.9193 17.6833C85.9577 16.5582 87.3942 15.8621 88.9832 15.8621ZM94.2938 14.0878C92.7465 12.5873 91.0248 11.6849 88.1858 11.6849C83.4316 11.6849 78.6455 16.3162 78.6455 22.1113C78.6455 24.9804 79.7134 27.5844 81.44 29.475C83.1681 31.3674 85.9945 32.5376 88.6272 32.5376C90.9414 32.5376 92.7228 31.6334 94.2938 30.1296V32.4123C94.2938 35.7942 91.5169 37.8467 89.3034 37.8467C86.179 37.8467 84.5084 36.5706 83.389 34.0938L79.4352 35.8757C80.3775 37.9608 81.751 39.4412 83.361 40.4321C85.1707 41.546 87.2411 41.9435 89.3034 41.9435C91.5617 41.9435 93.8428 40.9906 95.5407 39.4807C97.3035 37.9133 98.6052 34.9085 98.6052 32.138V12.2729H94.2938V14.0878ZM101.393 31.9402H105.844V1.3423H101.393V31.9402ZM123.348 25.5975C121.008 29.4977 114.833 29.4518 113.081 25.2767C115.778 24.1905 118.468 23.0912 121.158 21.992C123.158 21.1747 125.158 20.3574 127.161 19.5456C125.607 15.5412 123.481 13.2373 120.863 12.2862C116.83 10.8217 112.921 12.187 110.387 14.8723C107.281 18.1641 106.321 25.1078 110.804 29.6332C112.639 31.4851 115.094 32.6282 118.144 32.6249C121.57 32.606 124.715 31.1245 126.874 27.9605L123.348 25.5975ZM121.853 17.9292L112.372 21.7475C112.233 19.7394 113.312 17.9626 114.544 16.9218C117.748 14.7356 120.18 15.7774 121.853 17.9292Z" fill="#A3A3A3"/>
</svg>
