<svg width="1032" height="600" viewBox="0 0 1032 600" fill="none" xmlns="http://www.w3.org/2000/svg">
<g clip-path="url(#clip0_718_43020)">
<path d="M0 52H1032V588C1032 594.627 1026.63 600 1020 600H12C5.37259 600 0 594.627 0 588V52Z" fill="#E5E5E5"/>
<path fill-rule="evenodd" clip-rule="evenodd" d="M0 12C0 5.37258 5.37258 0 12 0H1020C1026.63 0 1032 5.37258 1032 12V52H0L0 12Z" fill="#E5E5E5"/>
<path fill-rule="evenodd" clip-rule="evenodd" d="M0.916504 12C0.916504 5.92487 5.84137 1 11.9165 1H1020.08C1026.16 1 1031.08 5.92487 1031.08 12V51H0.916504V12Z" fill="white"/>
<circle cx="27" cy="25" r="6" fill="#E5E5E5"/>
<circle cx="47" cy="25" r="6" fill="#E5E5E5"/>
<circle cx="67" cy="25" r="6" fill="#E5E5E5"/>
<path d="M286 17C286 13.6863 288.686 11 292 11H776C779.314 11 782 13.6863 782 17V35C782 38.3137 779.314 41 776 41H292C288.686 41 286 38.3137 286 35V17Z" fill="#F5F5F5"/>
<g style="mix-blend-mode:luminosity">
<path d="M497.269 32.0852H503.426C504.277 32.0852 504.696 31.6663 504.696 30.7395V25.9851C504.696 25.1472 504.353 24.7219 503.642 24.6521V23.0842C503.642 20.6721 502.036 19.5105 500.348 19.5105C498.659 19.5105 497.053 20.6721 497.053 23.0842V24.6711C496.393 24.7727 496 25.1917 496 25.9851V30.7395C496 31.6663 496.418 32.0852 497.269 32.0852ZM498.272 22.97C498.272 21.491 499.211 20.6785 500.348 20.6785C501.478 20.6785 502.423 21.491 502.423 22.97V24.6394L498.272 24.6458V22.97Z" fill="#A3A3A3"/>
</g>
<g style="mix-blend-mode:luminosity">
<path d="M511.693 33.4569V23.7069H512.746V24.8334H512.875C512.955 24.7103 513.066 24.5533 513.207 24.3625C513.352 24.1686 513.558 23.9962 513.826 23.8454C514.097 23.6916 514.463 23.6146 514.924 23.6146C515.522 23.6146 516.048 23.7639 516.503 24.0624C516.959 24.3609 517.314 24.7841 517.57 25.3319C517.825 25.8798 517.953 26.5261 517.953 27.2709C517.953 28.0218 517.825 28.6727 517.57 29.2236C517.314 29.7715 516.96 30.1962 516.508 30.4978C516.056 30.7963 515.534 30.9456 514.943 30.9456C514.487 30.9456 514.123 30.8702 513.849 30.7194C513.575 30.5655 513.364 30.3916 513.216 30.1977C513.069 30.0007 512.955 29.8376 512.875 29.7084H512.782V33.4569H511.693ZM512.764 27.2524C512.764 27.7879 512.842 28.2603 512.999 28.6697C513.156 29.0759 513.386 29.3944 513.687 29.6253C513.989 29.853 514.358 29.9669 514.795 29.9669C515.251 29.9669 515.631 29.8469 515.936 29.6068C516.243 29.3637 516.474 29.0374 516.628 28.6281C516.785 28.2157 516.863 27.7571 516.863 27.2524C516.863 26.7538 516.786 26.3045 516.633 25.9044C516.482 25.5012 516.253 25.1827 515.945 24.9488C515.64 24.7118 515.257 24.5933 514.795 24.5933C514.352 24.5933 513.98 24.7056 513.678 24.9303C513.376 25.1519 513.149 25.4627 512.995 25.8628C512.841 26.2599 512.764 26.723 512.764 27.2524ZM519.615 30.7979V23.7069H520.704V30.7979H519.615ZM520.169 22.5251C519.956 22.5251 519.773 22.4528 519.619 22.3081C519.469 22.1635 519.393 21.9896 519.393 21.7865C519.393 21.5834 519.469 21.4095 519.619 21.2648C519.773 21.1202 519.956 21.0479 520.169 21.0479C520.381 21.0479 520.563 21.1202 520.714 21.2648C520.867 21.4095 520.944 21.5834 520.944 21.7865C520.944 21.9896 520.867 22.1635 520.714 22.3081C520.563 22.4528 520.381 22.5251 520.169 22.5251ZM523.512 23.7069L525.211 26.6061L526.91 23.7069H528.166L525.876 27.2524L528.166 30.7979H526.91L525.211 28.0464L523.512 30.7979H522.257L524.509 27.2524L522.257 23.7069H523.512ZM534.743 25.295L533.764 25.572C533.703 25.4089 533.612 25.2504 533.492 25.0965C533.375 24.9395 533.215 24.8103 533.012 24.7087C532.809 24.6072 532.549 24.5564 532.232 24.5564C531.798 24.5564 531.436 24.6564 531.147 24.8564C530.861 25.0534 530.717 25.3042 530.717 25.6089C530.717 25.8798 530.816 26.0937 531.013 26.2506C531.21 26.4076 531.518 26.5384 531.936 26.643L532.989 26.9015C533.623 27.0554 534.095 27.2909 534.406 27.6079C534.717 27.9218 534.872 28.3265 534.872 28.822C534.872 29.2282 534.755 29.5914 534.521 29.9115C534.291 30.2316 533.967 30.4839 533.552 30.6686C533.136 30.8532 532.653 30.9456 532.102 30.9456C531.379 30.9456 530.781 30.7886 530.307 30.4747C529.833 30.1608 529.533 29.7022 529.406 29.099L530.44 28.8405C530.539 29.2221 530.725 29.5083 530.999 29.6991C531.276 29.8899 531.638 29.9854 532.084 29.9854C532.592 29.9854 532.995 29.8776 533.293 29.6622C533.595 29.4437 533.746 29.1821 533.746 28.8774C533.746 28.6312 533.66 28.425 533.487 28.2588C533.315 28.0895 533.05 27.9633 532.693 27.8802L531.511 27.6032C530.862 27.4494 530.385 27.2108 530.08 26.8877C529.779 26.5615 529.628 26.1537 529.628 25.6643C529.628 25.2642 529.74 24.9103 529.965 24.6025C530.193 24.2948 530.502 24.0532 530.893 23.8778C531.287 23.7023 531.733 23.6146 532.232 23.6146C532.933 23.6146 533.484 23.7685 533.884 24.0763C534.288 24.384 534.574 24.7903 534.743 25.295ZM539.485 30.9456C538.802 30.9456 538.213 30.7948 537.717 30.4932C537.225 30.1885 536.845 29.7638 536.577 29.219C536.312 28.6712 536.18 28.0341 536.18 27.3078C536.18 26.5815 536.312 25.9413 536.577 25.3873C536.845 24.8303 537.217 24.3963 537.694 24.0855C538.174 23.7716 538.734 23.6146 539.375 23.6146C539.744 23.6146 540.109 23.6762 540.469 23.7993C540.829 23.9224 541.156 24.1224 541.452 24.3994C541.747 24.6733 541.983 25.0365 542.158 25.4889C542.334 25.9413 542.421 26.4984 542.421 27.1601V27.6217H536.955V26.68H541.313C541.313 26.2799 541.233 25.9229 541.073 25.6089C540.916 25.295 540.692 25.0473 540.399 24.8657C540.11 24.6841 539.768 24.5933 539.375 24.5933C538.941 24.5933 538.565 24.701 538.248 24.9165C537.934 25.1288 537.693 25.4058 537.523 25.7474C537.354 26.089 537.269 26.4553 537.269 26.8461V27.474C537.269 28.0095 537.362 28.4635 537.546 28.8358C537.734 29.2052 537.994 29.4868 538.327 29.6807C538.659 29.8715 539.045 29.9669 539.485 29.9669C539.772 29.9669 540.03 29.9269 540.261 29.8469C540.495 29.7638 540.696 29.6407 540.866 29.4775C541.035 29.3113 541.166 29.1051 541.258 28.8589L542.311 29.1544C542.2 29.5114 542.014 29.8253 541.752 30.0961C541.49 30.3639 541.167 30.5732 540.783 30.724C540.398 30.8717 539.965 30.9456 539.485 30.9456ZM545.168 21.3433V30.7979H544.079V21.3433H545.168ZM548.253 21.3433V30.7979H547.164V21.3433H548.253ZM550.045 30.7979V29.9669L554.071 24.7964V24.7226H550.175V23.7069H555.474V24.5748L551.56 29.7084V29.7822H555.604V30.7979H550.045ZM558.076 30.8717C557.848 30.8717 557.653 30.7902 557.49 30.627C557.326 30.4639 557.245 30.2685 557.245 30.0407C557.245 29.813 557.326 29.6176 557.49 29.4545C557.653 29.2913 557.848 29.2098 558.076 29.2098C558.304 29.2098 558.499 29.2913 558.662 29.4545C558.825 29.6176 558.907 29.813 558.907 30.0407C558.907 30.1916 558.868 30.33 558.791 30.4562C558.718 30.5824 558.618 30.684 558.491 30.7609C558.368 30.8348 558.23 30.8717 558.076 30.8717ZM560.862 30.7979V23.7069H561.951V30.7979H560.862ZM561.416 22.5251C561.204 22.5251 561.02 22.4528 560.867 22.3081C560.716 22.1635 560.64 21.9896 560.64 21.7865C560.64 21.5834 560.716 21.4095 560.867 21.2648C561.02 21.1202 561.204 21.0479 561.416 21.0479C561.628 21.0479 561.81 21.1202 561.961 21.2648C562.115 21.4095 562.191 21.5834 562.191 21.7865C562.191 21.9896 562.115 22.1635 561.961 22.3081C561.81 22.4528 561.628 22.5251 561.416 22.5251ZM566.828 30.9456C566.187 30.9456 565.626 30.7932 565.143 30.4885C564.662 30.1839 564.287 29.7576 564.016 29.2098C563.748 28.662 563.614 28.0218 563.614 27.2893C563.614 26.5507 563.748 25.9059 564.016 25.355C564.287 24.8041 564.662 24.3763 565.143 24.0716C565.626 23.767 566.187 23.6146 566.828 23.6146C567.468 23.6146 568.028 23.767 568.508 24.0716C568.991 24.3763 569.367 24.8041 569.634 25.355C569.905 25.9059 570.041 26.5507 570.041 27.2893C570.041 28.0218 569.905 28.662 569.634 29.2098C569.367 29.7576 568.991 30.1839 568.508 30.4885C568.028 30.7932 567.468 30.9456 566.828 30.9456ZM566.828 29.9669C567.314 29.9669 567.714 29.8422 568.028 29.593C568.342 29.3437 568.574 29.0159 568.725 28.6096C568.876 28.2034 568.951 27.7633 568.951 27.2893C568.951 26.8154 568.876 26.3737 568.725 25.9644C568.574 25.5551 568.342 25.2242 568.028 24.9719C567.714 24.7195 567.314 24.5933 566.828 24.5933C566.341 24.5933 565.941 24.7195 565.627 24.9719C565.313 25.2242 565.081 25.5551 564.93 25.9644C564.779 26.3737 564.704 26.8154 564.704 27.2893C564.704 27.7633 564.779 28.2034 564.93 28.6096C565.081 29.0159 565.313 29.3437 565.627 29.593C565.941 29.8422 566.341 29.9669 566.828 29.9669Z" fill="#A3A3A3"/>
</g>
<g style="mix-blend-mode:luminosity">
<path d="M265.5 33.8984C265.641 33.8984 265.852 33.8516 266.047 33.7422C270.547 31.2969 272.109 30.1641 272.109 27.3203V21.4219C272.109 20.4844 271.742 20.1484 270.961 19.8125C270.094 19.4453 267.18 18.4297 266.328 18.1406C266.07 18.0547 265.766 18 265.5 18C265.234 18 264.93 18.0703 264.672 18.1406C263.82 18.3828 260.906 19.4531 260.039 19.8125C259.258 20.1406 258.891 20.4844 258.891 21.4219V27.3203C258.891 30.1641 260.461 31.2812 264.945 33.7422C265.148 33.8516 265.359 33.8984 265.5 33.8984ZM265.922 19.5781C266.945 19.9766 269.172 20.7656 270.344 21.1875C270.562 21.2656 270.617 21.3828 270.617 21.6641V27.0234C270.617 29.3125 269.469 29.9375 265.945 32.0625C265.727 32.1875 265.617 32.2344 265.508 32.2344V19.4844C265.617 19.4844 265.734 19.5156 265.922 19.5781Z" fill="#A3A3A3"/>
</g>
<g style="mix-blend-mode:luminosity">
<path d="M766.273 24.9766C766.5 24.9766 766.68 24.9062 766.82 24.7578L770.023 21.5312C770.195 21.3594 770.273 21.1719 770.273 20.9531C770.273 20.7422 770.188 20.5391 770.023 20.3828L766.82 17.125C766.68 16.9688 766.5 16.8906 766.273 16.8906C765.852 16.8906 765.516 17.2422 765.516 17.6719C765.516 17.8828 765.594 18.0547 765.727 18.2031L767.594 20.0312C767.227 19.9766 766.852 19.9453 766.477 19.9453C762.609 19.9453 759.516 23.0391 759.516 26.9141C759.516 30.7891 762.633 33.9062 766.5 33.9062C770.375 33.9062 773.484 30.7891 773.484 26.9141C773.484 26.4453 773.156 26.1094 772.688 26.1094C772.234 26.1094 771.93 26.4453 771.93 26.9141C771.93 29.9297 769.516 32.3516 766.5 32.3516C763.492 32.3516 761.07 29.9297 761.07 26.9141C761.07 23.875 763.469 21.4688 766.477 21.4688C766.984 21.4688 767.453 21.5078 767.867 21.5781L765.734 23.6875C765.594 23.8281 765.516 24 765.516 24.2109C765.516 24.6406 765.852 24.9766 766.273 24.9766Z" fill="#A3A3A3"/>
</g>
<g style="mix-blend-mode:luminosity">
<path d="M964 33.0156C964.492 33.0156 964.891 32.6094 964.891 32.1484V27.2578H969.656C970.133 27.2578 970.539 26.8594 970.539 26.3672C970.539 25.8828 970.133 25.4766 969.656 25.4766H964.891V20.5859C964.891 20.1172 964.492 19.7188 964 19.7188C963.516 19.7188 963.109 20.1172 963.109 20.5859V25.4766H958.344C957.883 25.4766 957.461 25.8828 957.461 26.3672C957.461 26.8594 957.883 27.2578 958.344 27.2578H963.109V32.1484C963.109 32.6094 963.516 33.0156 964 33.0156Z" fill="#A3A3A3"/>
</g>
<g style="mix-blend-mode:luminosity">
<path d="M991.797 31.0703H993.234V32.375C993.234 34.0547 994.117 34.9219 995.812 34.9219H1004.2C1005.89 34.9219 1006.77 34.0547 1006.77 32.3828V24.0469C1006.77 22.375 1005.89 21.5 1004.2 21.5H1002.77V20.2578C1002.77 18.5859 1001.88 17.7109 1000.19 17.7109H991.797C990.102 17.7109 989.227 18.5781 989.227 20.2578V28.5234C989.227 30.1953 990.102 31.0703 991.797 31.0703ZM991.898 29.5078C991.18 29.5078 990.781 29.1328 990.781 28.3828V20.3984C990.781 19.6406 991.18 19.2656 991.898 19.2656H1000.09C1000.8 19.2656 1001.2 19.6406 1001.2 20.3984V21.5H995.812C994.117 21.5 993.234 22.375 993.234 24.0469V29.5078H991.898ZM995.906 33.3672C995.188 33.3672 994.797 32.9922 994.797 32.2422V24.1875C994.797 23.4297 995.188 23.0625 995.906 23.0625H1004.1C1004.81 23.0625 1005.21 23.4297 1005.21 24.1875V32.2422C1005.21 32.9922 1004.81 33.3672 1004.1 33.3672H995.906Z" fill="#A3A3A3"/>
</g>
<g style="mix-blend-mode:luminosity">
<path d="M929.508 28.4141C929.914 28.4141 930.242 28.0859 930.242 27.6953V19.8359L930.18 18.6797L930.664 19.25L931.75 20.4141C931.883 20.5547 932.062 20.625 932.242 20.625C932.602 20.625 932.898 20.3672 932.898 20C932.898 19.8047 932.82 19.6641 932.688 19.5312L930.062 17.0078C929.875 16.8203 929.703 16.7578 929.508 16.7578C929.32 16.7578 929.141 16.8203 928.953 17.0078L926.328 19.5312C926.195 19.6641 926.125 19.8047 926.125 20C926.125 20.3672 926.414 20.625 926.773 20.625C926.953 20.625 927.141 20.5547 927.266 20.4141L928.352 19.25L928.836 18.6719L928.781 19.8359V27.6953C928.781 28.0859 929.109 28.4141 929.508 28.4141ZM925 34.6562H934C935.695 34.6562 936.57 33.7812 936.57 32.1094V24.4297C936.57 22.7578 935.695 21.8828 934 21.8828H931.891V23.4375H933.898C934.609 23.4375 935.016 23.8125 935.016 24.5625V31.9688C935.016 32.7188 934.609 33.0938 933.898 33.0938H925.102C924.383 33.0938 923.984 32.7188 923.984 31.9688V24.5625C923.984 23.8125 924.383 23.4375 925.102 23.4375H927.133V21.8828H925C923.312 21.8828 922.43 22.75 922.43 24.4297V32.1094C922.43 33.7812 923.312 34.6562 925 34.6562Z" fill="#A3A3A3"/>
</g>
<g style="mix-blend-mode:luminosity">
<path d="M99.5703 33.6016H112.938C114.633 33.6016 115.516 32.7266 115.516 31.0547V21.5469C115.516 19.875 114.633 19 112.938 19H99.5703C97.8828 19 97 19.8672 97 21.5469V31.0547C97 32.7266 97.8828 33.6016 99.5703 33.6016ZM99.6719 32.0469C98.9531 32.0469 98.5547 31.6719 98.5547 30.9141V21.6875C98.5547 20.9297 98.9531 20.5547 99.6719 20.5547H103.234V32.0469H99.6719ZM112.836 20.5547C113.555 20.5547 113.953 20.9297 113.953 21.6875V30.9141C113.953 31.6719 113.555 32.0469 112.836 32.0469H104.711V20.5547H112.836ZM101.703 23.4141C101.984 23.4141 102.219 23.1719 102.219 22.9062C102.219 22.6406 101.984 22.4062 101.703 22.4062H100.102C99.8203 22.4062 99.5859 22.6406 99.5859 22.9062C99.5859 23.1719 99.8203 23.4141 100.102 23.4141H101.703ZM101.703 25.5156C101.984 25.5156 102.219 25.2812 102.219 25.0078C102.219 24.7422 101.984 24.5078 101.703 24.5078H100.102C99.8203 24.5078 99.5859 24.7422 99.5859 25.0078C99.5859 25.2812 99.8203 25.5156 100.102 25.5156H101.703ZM101.703 27.6094C101.984 27.6094 102.219 27.3828 102.219 27.1094C102.219 26.8438 101.984 26.6172 101.703 26.6172H100.102C99.8203 26.6172 99.5859 26.8438 99.5859 27.1094C99.5859 27.3828 99.8203 27.6094 100.102 27.6094H101.703Z" fill="#A3A3A3"/>
</g>
<g style="mix-blend-mode:luminosity">
<path d="M143.914 32.5938C144.094 32.7656 144.312 32.8594 144.562 32.8594C145.086 32.8594 145.492 32.4531 145.492 31.9375C145.492 31.6797 145.391 31.4453 145.211 31.2656L139.742 25.9219L145.211 20.5938C145.391 20.4141 145.492 20.1719 145.492 19.9219C145.492 19.4062 145.086 19 144.562 19C144.312 19 144.094 19.0938 143.922 19.2656L137.844 25.2031C137.625 25.4062 137.516 25.6562 137.516 25.9297C137.516 26.2031 137.625 26.4375 137.836 26.6484L143.914 32.5938Z" fill="#A3A3A3"/>
</g>
<g style="mix-blend-mode:luminosity">
<path d="M168.422 32.8594C168.68 32.8594 168.891 32.7656 169.07 32.5938L175.148 26.6562C175.359 26.4375 175.469 26.2109 175.469 25.9297C175.469 25.6562 175.367 25.4141 175.148 25.2109L169.07 19.2656C168.891 19.0938 168.68 19 168.422 19C167.898 19 167.492 19.4062 167.492 19.9219C167.492 20.1719 167.602 20.4141 167.773 20.5938L173.25 25.9375L167.773 31.2656C167.594 31.4531 167.492 31.6797 167.492 31.9375C167.492 32.4531 167.898 32.8594 168.422 32.8594Z" fill="#A3A3A3"/>
</g>
<g clip-path="url(#clip1_718_43020)">
<path d="M1 52H1031V588C1031 594.075 1026.08 599 1020 599H12C5.92486 599 1 594.075 1 588V52Z" fill="#E5E5E5"/>
</g>
</g>
<defs>
<clipPath id="clip0_718_43020">
<rect width="1032" height="600" fill="white"/>
</clipPath>
<clipPath id="clip1_718_43020">
<rect width="1030" height="547" fill="white" transform="translate(1 52)"/>
</clipPath>
</defs>
</svg>
